<svg id="Layer_1" data-name="Layer 1" xmlns="http://www.w3.org/2000/svg" width="256" height="256" viewBox="0 0 256 256"><defs><style>.cls-1{fill:#1e1e1e;}.cls-2{fill:#fff;}</style></defs><title>icon</title><rect class="cls-1" width="256" height="256"/><g id="Layer_1-2" data-name="Layer 1"><path class="cls-2" d="M80,165.333A10.7,10.7,0,0,0,90.667,176h74.666A10.7,10.7,0,0,0,176,165.333V90.666A10.7,10.7,0,0,0,165.333,80H90.667A10.7,10.7,0,0,0,80,90.666Zm88-48v48A2.519,2.519,0,0,1,165.333,168H90.667A2.519,2.519,0,0,1,88,165.333V90.666A2.519,2.519,0,0,1,90.667,88h30.666A2.519,2.519,0,0,1,124,90.666v16a10.7,10.7,0,0,0,10.667,10.667Zm-33.333-8A2.52,2.52,0,0,1,132,106.666V88h33.333A2.519,2.519,0,0,1,168,90.666v18.667Z" transform="translate(0.059 0.059)"/></g></svg>